<svg width="10" height="10" viewBox="0 0 10 10" fill="none" xmlns="http://www.w3.org/2000/svg">
<path d="M7.5 2H10V3H9V9.5C9 9.63261 8.94732 9.75979 8.85355 9.85355C8.75979 9.94732 8.63261 10 8.5 10H1.5C1.36739 10 1.24021 9.94732 1.14645 9.85355C1.05268 9.75979 1 9.63261 1 9.5V3H0V2H2.5V0.5C2.5 0.367392 2.55268 0.240215 2.64645 0.146447C2.74021 0.0526784 2.86739 0 3 0H7C7.13261 0 7.25979 0.0526784 7.35355 0.146447C7.44732 0.240215 7.5 0.367392 7.5 0.5V2ZM8 3H2V9H8V3ZM3.5 4.5H4.5V7.5H3.5V4.5ZM5.5 4.5H6.5V7.5H5.5V4.5ZM3.5 1V2H6.5V1H3.5Z" fill="#475569"/>
</svg>
