<svg width="16" height="15" viewBox="0 0 16 15" fill="none" xmlns="http://www.w3.org/2000/svg">
<path d="M14 0H2C0.9 0 0 0.84375 0 1.875V13.125C0 14.1563 0.9 15 2 15H14C15.1 15 16 14.1563 16 13.125V1.875C16 0.84375 15.1 0 14 0ZM12 8.4375H9V11.25C9 11.7656 8.55 12.1875 8 12.1875C7.45 12.1875 7 11.7656 7 11.25V8.4375H4C3.45 8.4375 3 8.01563 3 7.5C3 6.98438 3.45 6.5625 4 6.5625H7V3.75C7 3.23438 7.45 2.8125 8 2.8125C8.55 2.8125 9 3.23438 9 3.75V6.5625H12C12.55 6.5625 13 6.98438 13 7.5C13 8.01563 12.55 8.4375 12 8.4375Z" fill="#969696"/>
</svg>
