<svg width="20" height="20" viewBox="0 0 20 20" fill="none" xmlns="http://www.w3.org/2000/svg">
<path d="M14.1668 12.5007H15.8335V5.83398C15.8335 4.91732 15.0835 4.16732 14.1668 4.16732H7.50016V5.83398H13.3335C13.7918 5.83398 14.1668 6.20898 14.1668 6.66732V12.5007ZM6.66683 14.1673C6.2085 14.1673 5.8335 13.7923 5.8335 13.334V1.66732C5.8335 1.20898 5.4585 0.833984 5.00016 0.833984C4.54183 0.833984 4.16683 1.20898 4.16683 1.66732V4.16732H1.66683C1.2085 4.16732 0.833496 4.54232 0.833496 5.00065C0.833496 5.45898 1.2085 5.83398 1.66683 5.83398H4.16683V14.1673C4.16683 15.084 4.91683 15.834 5.8335 15.834H14.1668V18.334C14.1668 18.7923 14.5418 19.1673 15.0002 19.1673C15.4585 19.1673 15.8335 18.7923 15.8335 18.334V15.834H18.3335C18.7918 15.834 19.1668 15.459 19.1668 15.0007C19.1668 14.5423 18.7918 14.1673 18.3335 14.1673H6.66683Z" fill="#969696"/>
</svg>
