<svg width="14" height="16" viewBox="0 0 14 16" fill="none" xmlns="http://www.w3.org/2000/svg">
<path d="M7.49958 13.0477C7.19958 13.281 6.77458 13.281 6.47458 13.0477L1.34958 9.06432C1.04958 8.83099 0.63291 8.83099 0.33291 9.06432C-0.0920898 9.39766 -0.0920898 10.0393 0.33291 10.3727L5.96624 14.756C6.56624 15.2227 7.40791 15.2227 8.01624 14.756L13.6496 10.3727C14.0746 10.0393 14.0746 9.39766 13.6496 9.06432L13.6412 9.05599C13.3412 8.82266 12.9246 8.82266 12.6246 9.05599L7.49958 13.0477ZM8.02458 10.531L13.6579 6.14766C14.0829 5.81432 14.0829 5.16432 13.6579 4.83099L8.02458 0.447656C7.42458 -0.0190104 6.58291 -0.0190104 5.97458 0.447656L0.341244 4.83932C-0.0837563 5.17266 -0.0837563 5.82266 0.341244 6.15599L5.97458 10.5393C6.57458 11.006 7.42458 11.006 8.02458 10.531Z" fill="#969696"/>
</svg>
