<svg width="18" height="18" viewBox="0 0 18 18" fill="none" xmlns="http://www.w3.org/2000/svg">
<path d="M17.3327 12.3307V2.33073C17.3327 1.41406 16.5827 0.664062 15.666 0.664062H5.66601C4.74935 0.664062 3.99935 1.41406 3.99935 2.33073V12.3307C3.99935 13.2474 4.74935 13.9974 5.66601 13.9974H15.666C16.5827 13.9974 17.3327 13.2474 17.3327 12.3307ZM8.49935 9.43906L9.85768 11.2557L12.0077 8.57239C12.1743 8.36406 12.491 8.36406 12.6577 8.57239L15.1243 11.6557C15.341 11.9307 15.1493 12.3307 14.7993 12.3307H6.49935C6.15768 12.3307 5.95768 11.9391 6.16602 11.6641L7.83268 9.43906C7.99935 9.22239 8.33268 9.22239 8.49935 9.43906ZM0.666016 4.83073V15.6641C0.666016 16.5807 1.41602 17.3307 2.33268 17.3307H13.166C13.6243 17.3307 13.9993 16.9557 13.9993 16.4974C13.9993 16.0391 13.6243 15.6641 13.166 15.6641H3.16602C2.70768 15.6641 2.33268 15.2891 2.33268 14.8307V4.83073C2.33268 4.3724 1.95768 3.9974 1.49935 3.9974C1.04102 3.9974 0.666016 4.3724 0.666016 4.83073Z" fill="#969696"/>
</svg>
