<?xml version="1.0" encoding="iso-8859-1"?>
<!-- Generator: Adobe Illustrator 19.0.0, SVG Export Plug-In . SVG Version: 6.00 Build 0)  -->
<svg version="1.1" id="Layer_1" xmlns="http://www.w3.org/2000/svg" xmlns:xlink="http://www.w3.org/1999/xlink" x="0px" y="0px"
	 viewBox="0 0 282.859 282.859" style="enable-background:new 0 0 282.859 282.859;" xml:space="preserve">
<g>
	<path style="fill:#1D1D1B;" d="M241.633,103.069c50.272-2.532,47.419,79.447-2.451,78.442c-0.121,0-0.201-0.04-0.322-0.08
		c-10.488,28.974-31.706,50.112-58.55,60.841c0.161,0.241,0.281,0.482,0.321,0.844c3.295,23.468-16.757,37.734-38.337,39.543
		c-27.045,2.25-41.673-14.668-40.346-40.065c-28.572-11.413-50.433-34.6-61.725-63.011c-46.615,0.924-46.374-79.929-3.737-77.558
		c9.323-29.778,31.867-51.639,59.274-62.69c2.733-51.518,82.742-53.366,85.716,0c0.04,0.362-0.04,0.683-0.161,0.924
		c2.974,1.326,5.947,2.733,8.841,4.34c0.322,0.201,0.522,0.442,0.603,0.723c0.281-0.04,0.563,0,0.844,0.121
		c24.955,11.131,40.989,33.113,48.745,58.189C240.669,103.31,241.071,103.069,241.633,103.069z M239.785,178.779
		c43.039-3.777,47.419-69.039,1.848-72.093c-0.121,0-0.201-0.04-0.321-0.08c5.827,20.655,6.068,43.159,1.085,63.333
		C241.633,172.952,240.749,175.886,239.785,178.779z M238.981,168.974c6.751-27.286,3.577-58.993-10.328-84.068
		c-15.029,12.9-30.943,25.277-46.414,37.654c1.648,3.697,2.733,7.675,3.255,11.855c0.402,3.215,0.321,6.269-0.12,9.203
		c16.637,12.819,32.631,26.563,48.504,40.306C235.967,179.06,237.695,174.077,238.981,168.974z M232.511,186.977
		c-0.04-0.04-0.161-0.04-0.201-0.121c-16.074-13.301-32.148-26.723-47.419-40.909c-2.692,11.654-11.573,20.696-22.504,26.402
		c17.2,14.387,33.836,29.577,50.071,45.008C220.496,208.316,227.448,197.988,232.511,186.977z M205.989,224.189
		c1.527-1.487,2.974-3.054,4.42-4.581c-16.918-14.909-33.635-30.22-49.589-46.173c-0.04-0.08-0.04-0.161-0.08-0.241
		c-6.671,3.255-13.985,5.224-21.017,5.827c-0.964,0.08-1.487-0.683-1.567-1.487c-2.652-0.121-5.104-0.442-7.434-1.005
		c0,0.362-0.12,0.764-0.402,1.085c-15.471,16.918-30.822,34.198-47.299,50.152c15.914,10.77,35.042,17.802,56.34,20.012
		C162.789,246.01,188.829,240.986,205.989,224.189z M227.167,82.374c-6.47-10.89-15.029-20.455-25.839-27.567
		c-14.306,14.708-28.853,31.345-45.128,44.124c10.85,3.576,19.972,11.493,25.116,21.74
		C194.938,106.726,210.771,93.023,227.167,82.374z M198.715,53.038c-2.813-1.688-5.747-3.295-8.841-4.662
		c-0.563-0.241-0.804-0.683-0.844-1.125c-0.121-0.04-0.241-0.04-0.362-0.121c-29.376-15.23-63.092-15.552-91.422-4.139
		c-0.241,0.201-0.482,0.281-0.764,0.281c-6.631,2.733-12.94,6.068-18.847,10.047c0.201,0,0.442,0.04,0.603,0.241
		c16.396,15.11,32.55,30.863,47.861,47.057c4.38-1.969,9.323-3.295,14.949-3.657c4.38-0.281,8.64,0.201,12.739,1.246
		C166.727,81.851,183.646,67.344,198.715,53.038z M142.294,175.323c19.771-3.858,39.663-16.356,39.623-38.819
		c0-16.556-14.105-30.541-29.617-34.56c-0.241,0.161-0.563,0.04-0.723-0.161c-2.813-0.683-5.626-1.045-8.439-1.005
		c-21.941,0.281-38.819,18.767-37.132,40.547C107.534,161.258,123.688,172.992,142.294,175.323z M136.749,279.042
		c19.731,0.603,43.441-11.332,40.105-34.881c-0.04-0.201,0-0.362,0-0.563c-10.087,3.657-20.856,5.867-32.148,6.51
		c-0.161,0.08-0.281,0.201-0.523,0.201c-1.808,0.04-3.617,0-5.425-0.08c-1.728,0-3.376,0.08-5.104,0.04
		c-0.362-0.04-0.603-0.161-0.764-0.402c-10.087-0.844-19.691-3.054-28.612-6.389C105.685,263.45,113.16,278.319,136.749,279.042z
		 M98.251,38.33c24.795-9.323,53.206-9.926,79.126,0.281c-3.175-22.866-21.66-38.659-45.169-35.122
		C113.441,6.302,101.827,20.769,98.251,38.33z M105.123,126.015c2.773-9.966,8.921-18.927,18.606-24.192
		c-16.074-15.07-31.747-30.903-46.736-47.017c-0.322-0.321-0.281-0.643-0.121-0.964c-10.77,7.434-20.053,16.878-27.125,28.09
		C68.514,96.198,86.597,111.428,105.123,126.015z M127.707,175.685c-13.985-4.621-21.982-17.119-23.83-30.863
		c-0.08,0.161-0.201,0.362-0.362,0.482c-9.564,7.756-19.008,15.552-27.929,24.031c-8.359,7.917-15.994,16.838-24.634,24.473
		c7.635,12.9,17.883,23.91,30.139,32.631C95.84,208.878,111.954,192.281,127.707,175.685z M104.319,129.311
		c-0.161-0.08-0.362-0.161-0.522-0.281C85.03,114.402,66.183,99.694,48.702,83.62c-3.536,5.907-6.47,12.337-8.68,19.169
		c1.045,1.085,0.764,3.134-0.924,3.175c-1.688,6.108-2.893,12.498-3.376,19.209c-1.889,25.237,3.416,48.062,14.266,67.03
		c13.06-19.128,33.475-35.524,51.759-49.187c0.763-0.563,1.607-0.08,1.969,0.643C103.234,138.875,103.395,134.012,104.319,129.311z
		 M32.869,117.898c0.563-4.139,1.447-8.158,2.492-12.016c-19.45,0.241-27.969,21.017-26.844,38.056
		c1.206,18.646,13.06,30.622,30.702,33.193C32.467,158.887,29.976,138.593,32.869,117.898z"/>
	<path style="fill:#E94B59;" d="M228.653,84.905c13.904,25.076,17.079,56.782,10.328,84.068c-1.286,5.104-3.014,10.087-5.104,14.949
		c-15.873-13.743-31.867-27.487-48.504-40.306c0.442-2.934,0.522-5.988,0.12-9.203c-0.522-4.179-1.607-8.158-3.255-11.855
		C197.711,110.182,213.624,97.805,228.653,84.905z M233.355,139.799c0.04-1.487-2.291-1.487-2.331,0
		c-0.08,2.773-1.085,5.345-2.733,7.555c-0.643,0.844,0.723,1.808,1.407,1.085C232.069,146.068,233.235,143.134,233.355,139.799z
		 M213.624,109.74c0.884-0.804-0.402-2.009-1.286-1.286c-3.094,2.492-6.269,4.742-9.604,6.872c-0.723,0.482-0.08,1.527,0.723,1.165
		C207.194,114.844,210.61,112.513,213.624,109.74z M205.064,111.749c0.683-0.563-0.201-1.728-0.964-1.246
		c-2.893,1.808-5.626,3.858-8.238,6.068c-0.603,0.522,0.201,1.567,0.884,1.125C199.639,115.929,202.412,113.919,205.064,111.749z"/>
	<path style="fill:#1D1D1B;" d="M231.024,139.799c0.04-1.487,2.371-1.487,2.331,0c-0.12,3.335-1.286,6.269-3.657,8.64
		c-0.683,0.723-2.049-0.241-1.407-1.085C229.939,145.144,230.944,142.572,231.024,139.799z"/>
	<path style="fill:#F6F6F6;" d="M232.31,186.856c0.04,0.08,0.161,0.08,0.201,0.121c-5.063,11.011-12.016,21.339-20.053,30.38
		c-16.235-15.431-32.872-30.622-50.071-45.008c10.931-5.706,19.812-14.748,22.504-26.402
		C200.162,160.133,216.236,173.555,232.31,186.856z M200.282,169.617c0.884,0.763,2.049-0.402,1.286-1.286
		c-2.009-2.331-4.38-4.34-6.631-6.43c-0.723-0.643-1.768,0.362-1.085,1.085C195.942,165.237,197.952,167.648,200.282,169.617z
		 M198.353,164.513c0.844,0.643,2.049-0.442,1.206-1.206c-2.13-1.929-4.42-3.617-6.671-5.385c-0.683-0.523-1.607,0.362-0.965,0.964
		C194.013,160.816,196.103,162.785,198.353,164.513z"/>
	<path style="fill:#1D1D1B;" d="M212.338,108.454c0.884-0.723,2.17,0.482,1.286,1.286c-3.014,2.773-6.43,5.104-10.167,6.751
		c-0.804,0.362-1.447-0.683-0.723-1.165C206.069,113.196,209.244,110.946,212.338,108.454z"/>
	<path style="fill:#E94B59;" d="M210.409,219.608c-1.447,1.527-2.893,3.094-4.42,4.581c-17.159,16.798-43.2,21.821-66.628,23.589
		c-21.298-2.21-40.427-9.243-56.34-20.012c16.476-15.954,31.827-33.234,47.299-50.152c0.281-0.321,0.402-0.723,0.402-1.085
		c2.331,0.563,4.782,0.884,7.434,1.005c0.08,0.804,0.603,1.567,1.567,1.487c7.033-0.603,14.346-2.572,21.017-5.827
		c0.04,0.08,0.04,0.161,0.08,0.241C176.774,189.388,193.491,204.699,210.409,219.608z M176.292,204.659
		c0.804,0.723,1.848-0.362,1.165-1.165c-2.009-2.492-4.26-4.742-6.51-7.033c-0.763-0.764-1.848,0.362-1.165,1.125
		C171.911,200.037,173.961,202.448,176.292,204.659z M176.573,197.023c0.442,0.241,1.045-0.281,0.723-0.723
		c-1.487-1.969-3.697-3.536-5.546-5.184c-0.522-0.442-1.246,0.281-0.764,0.764C172.755,193.608,174.483,195.697,176.573,197.023z
		 M147.438,239.017c0.804-0.201,0.643-1.567-0.201-1.487c-3.215,0.281-6.349,0.321-9.564-0.08c-0.804-0.121-0.964,1.246-0.201,1.447
		C140.767,239.741,144.143,239.821,147.438,239.017z M142.375,242.956c0.723-0.201,0.603-1.447-0.161-1.366
		c-2.974,0.362-5.988,0.281-8.881-0.522c-0.884-0.241-1.206,1.085-0.362,1.366C136.106,243.558,139.12,243.799,142.375,242.956z
		 M140.848,184.124c0.723-0.121,0.563-1.366-0.161-1.286c-2.21,0.161-4.3-0.04-6.389-0.884c-0.643-0.281-1.085,0.844-0.482,1.125
		C136.106,184.084,138.396,184.526,140.848,184.124z"/>
	<path style="fill:#1D1D1B;" d="M204.1,110.504c0.764-0.482,1.648,0.683,0.964,1.246c-2.652,2.17-5.425,4.179-8.318,5.947
		c-0.683,0.442-1.487-0.603-0.884-1.125C198.474,114.361,201.207,112.312,204.1,110.504z"/>
	<path style="fill:#F6F6F6;" d="M201.327,54.806c10.81,7.113,19.37,16.677,25.839,27.567
		c-16.396,10.649-32.229,24.353-45.852,38.297c-5.144-10.247-14.266-18.164-25.116-21.74
		C172.474,86.151,187.021,69.514,201.327,54.806z M185.896,89.085c0.643-0.723-0.281-1.648-1.005-1.045
		c-1.085,0.924-2.049,1.969-3.054,2.974c-0.683,0.723,0.362,1.808,1.085,1.125C183.927,91.134,185.012,90.17,185.896,89.085z"/>
	<path style="fill:#1D1D1B;" d="M201.568,168.331c0.764,0.884-0.402,2.049-1.286,1.286c-2.331-1.969-4.34-4.38-6.43-6.631
		c-0.683-0.723,0.362-1.728,1.085-1.085C197.188,163.991,199.559,166,201.568,168.331z"/>
	<path style="fill:#1D1D1B;" d="M199.559,163.308c0.844,0.764-0.362,1.849-1.206,1.206c-2.25-1.728-4.34-3.697-6.43-5.626
		c-0.643-0.603,0.281-1.487,0.965-0.964C195.139,159.691,197.429,161.379,199.559,163.308z"/>
	<path style="fill:#E94B59;" d="M189.874,48.377c3.094,1.366,6.028,2.974,8.841,4.662c-15.07,14.306-31.988,28.813-44.928,45.169
		c-4.099-1.045-8.359-1.527-12.739-1.246c-5.626,0.362-10.569,1.688-14.949,3.657c-15.31-16.196-31.465-31.949-47.861-47.058
		c-0.161-0.201-0.402-0.241-0.603-0.241c5.907-3.978,12.216-7.314,18.847-10.047c0.281,0,0.522-0.08,0.764-0.281
		c28.331-11.413,62.047-11.091,91.422,4.139c0.12,0.08,0.241,0.08,0.362,0.121C189.071,47.693,189.312,48.135,189.874,48.377z
		 M184.168,53.601c0.804,0.924,2.049-0.402,1.326-1.326c-1.567-2.049-3.858-3.376-6.39-3.777c-1.005-0.161-1.447,1.246-0.442,1.527
		C180.913,50.667,182.681,51.833,184.168,53.601z M183.525,48.738c0.402,0.402,1.206-0.121,0.804-0.643
		c-1.366-1.808-3.135-2.773-5.465-2.893c-0.723-0.04-0.884,1.125-0.161,1.246C180.511,46.769,182.118,47.533,183.525,48.738z
		 M105.484,69.514c0.723,0.723,1.808-0.362,1.085-1.085c-1.447-1.567-2.934-3.094-4.501-4.541c-0.723-0.764-1.889,0.362-1.125,1.125
		C102.39,66.581,103.917,68.068,105.484,69.514z M99.577,68.67c0.764,0.522,1.728-0.683,1.005-1.286
		c-1.849-1.607-3.536-3.335-4.862-5.385c-0.603-0.965-2.09-0.08-1.527,0.884C95.599,65.214,97.327,67.183,99.577,68.67z"/>
	<path style="fill:#1D1D1B;" d="M184.891,88.04c0.723-0.603,1.648,0.322,1.005,1.045c-0.884,1.085-1.969,2.049-2.974,3.054
		c-0.723,0.683-1.768-0.402-1.085-1.125C182.842,90.009,183.806,88.964,184.891,88.04z"/>
	<path style="fill:#1D1D1B;" d="M185.494,52.275c0.723,0.924-0.522,2.25-1.326,1.326c-1.487-1.768-3.255-2.934-5.505-3.577
		c-1.005-0.281-0.563-1.688,0.442-1.527C181.636,48.899,183.927,50.225,185.494,52.275z"/>
	<path style="fill:#1D1D1B;" d="M184.329,48.095c0.402,0.522-0.402,1.045-0.804,0.643c-1.407-1.206-3.014-1.969-4.822-2.291
		c-0.723-0.121-0.563-1.286,0.161-1.246C181.194,45.322,182.962,46.287,184.329,48.095z"/>
	<path style="fill:#1D1D1B;" d="M177.457,203.493c0.683,0.804-0.362,1.889-1.165,1.165c-2.331-2.21-4.38-4.621-6.51-7.073
		c-0.683-0.763,0.402-1.889,1.165-1.125C173.197,198.751,175.448,201.002,177.457,203.493z"/>
	<path style="fill:#1D1D1B;" d="M177.296,196.3c0.322,0.442-0.281,0.964-0.723,0.723c-2.09-1.326-3.818-3.416-5.586-5.144
		c-0.482-0.482,0.241-1.206,0.764-0.764C173.599,192.764,175.809,194.331,177.296,196.3z"/>
	<path style="fill:#1D1D1B;" d="M147.237,237.531c0.844-0.08,1.005,1.286,0.201,1.487c-3.295,0.804-6.671,0.723-9.966-0.12
		c-0.763-0.201-0.603-1.567,0.201-1.447C140.888,237.852,144.022,237.812,147.237,237.531z"/>
	<path style="fill:#1D1D1B;" d="M142.214,241.589c0.764-0.08,0.884,1.165,0.161,1.366c-3.255,0.844-6.269,0.603-9.404-0.522
		c-0.844-0.281-0.522-1.607,0.362-1.366C136.226,241.871,139.24,241.951,142.214,241.589z"/>
	<path style="fill:#1D1D1B;" d="M140.687,182.838c0.723-0.08,0.884,1.165,0.161,1.286c-2.451,0.402-4.742-0.04-7.033-1.045
		c-0.603-0.281-0.161-1.406,0.482-1.125C136.387,182.798,138.477,182.999,140.687,182.838z"/>
	<path style="fill:#F6F6F6;" d="M123.729,101.824c-9.685,5.264-15.833,14.226-18.606,24.192
		c-18.526-14.587-36.609-29.818-55.376-44.084c7.073-11.212,16.356-20.655,27.125-28.09c-0.161,0.321-0.201,0.643,0.121,0.964
		C91.982,70.921,107.654,86.754,123.729,101.824z"/>
	<path style="fill:#F6F6F6;" d="M103.877,144.822c1.848,13.743,9.845,26.241,23.83,30.863
		c-15.753,16.597-31.867,33.193-46.615,50.755c-12.257-8.72-22.504-19.731-30.139-32.631c8.64-7.635,16.275-16.557,24.634-24.473
		c8.921-8.479,18.365-16.275,27.929-24.031C103.676,145.184,103.797,144.983,103.877,144.822z M106.127,165.799
		c0.683,0.603,1.607-0.322,1.005-1.005c-1.929-2.25-3.014-4.742-3.777-7.555c-0.201-0.844-1.648-0.723-1.567,0.201
		C102.109,160.736,103.716,163.629,106.127,165.799z M105.806,171.666c0.884,0.321,1.246-0.924,0.603-1.366
		c-2.451-1.728-4.661-3.737-6.269-6.269c-0.563-0.924-1.848-0.121-1.447,0.844C100.18,168.049,102.511,170.461,105.806,171.666z
		 M91.58,188.705c0.241-0.723-0.844-1.165-1.206-0.522c-1.165,2.331-3.175,4.26-5.626,5.224c-0.924,0.402-0.563,1.889,0.442,1.567
		C88.365,194.009,90.576,191.88,91.58,188.705z"/>
	<path style="fill:#1D1D1B;" d="M107.132,164.794c0.603,0.683-0.321,1.607-1.005,1.005c-2.411-2.17-4.019-5.063-4.34-8.359
		c-0.08-0.924,1.366-1.045,1.567-0.201C104.118,160.053,105.203,162.544,107.132,164.794z"/>
	<path style="fill:#1D1D1B;" d="M106.569,68.429c0.723,0.723-0.362,1.808-1.085,1.085c-1.567-1.447-3.094-2.934-4.541-4.501
		c-0.764-0.764,0.402-1.889,1.125-1.125C103.636,65.335,105.123,66.862,106.569,68.429z"/>
	<path style="fill:#1D1D1B;" d="M106.409,170.3c0.643,0.442,0.281,1.688-0.603,1.366c-3.295-1.206-5.626-3.617-7.113-6.791
		c-0.402-0.965,0.884-1.768,1.447-0.844C101.747,166.563,103.957,168.572,106.409,170.3z"/>
	<path style="fill:#E94B59;" d="M103.797,129.029c0.161,0.12,0.362,0.201,0.522,0.281c-0.924,4.702-1.085,9.564-0.603,14.346
		c-0.362-0.723-1.206-1.205-1.969-0.643c-18.285,13.663-38.699,30.059-51.759,49.187c-10.85-18.968-16.155-41.793-14.266-67.03
		c0.482-6.711,1.688-13.101,3.376-19.209c1.688-0.04,1.969-2.09,0.924-3.175c2.21-6.831,5.144-13.261,8.68-19.169
		C66.183,99.694,85.03,114.402,103.797,129.029z M77.073,113.276c0.723,0.442,1.487-0.603,0.884-1.206
		c-2.21-2.09-4.702-3.858-7.153-5.666c-0.764-0.563-1.728,0.683-1.005,1.286C72.17,109.66,74.461,111.629,77.073,113.276z
		 M75.426,115.929c0.924,0.603,1.728-0.804,0.844-1.447c-1.929-1.407-3.898-2.813-6.028-3.978c-0.723-0.442-1.648,0.643-0.924,1.206
		C71.246,113.276,73.336,114.643,75.426,115.929z M48.541,174.881c0.402,0.804,1.808,0.241,1.447-0.603
		c-1.125-2.893-1.447-6.108-0.884-9.122c0.201-1.045-1.286-1.487-1.607-0.442C46.411,168.25,46.813,171.626,48.541,174.881z
		 M46.773,177.493c0.04,0.603,1.005,0.603,0.964,0c-0.201-2.934-0.522-5.907-1.407-8.72c-0.201-0.643-1.085-0.362-0.964,0.281
		C45.849,171.867,46.452,174.64,46.773,177.493z"/>
	<path style="fill:#1D1D1B;" d="M100.582,67.384c0.723,0.603-0.241,1.808-1.005,1.286c-2.25-1.487-3.978-3.456-5.385-5.787
		c-0.563-0.964,0.924-1.848,1.527-0.884C97.045,64.049,98.733,65.777,100.582,67.384z"/>
	<path style="fill:#1D1D1B;" d="M90.375,188.183c0.362-0.643,1.447-0.201,1.206,0.522c-1.005,3.175-3.215,5.305-6.39,6.269
		c-1.005,0.321-1.366-1.165-0.442-1.567C87.2,192.442,89.209,190.513,90.375,188.183z"/>
	<path style="fill:#1D1D1B;" d="M77.957,112.071c0.603,0.603-0.161,1.648-0.884,1.206c-2.612-1.648-4.903-3.617-7.274-5.586
		c-0.723-0.603,0.241-1.849,1.005-1.286C73.255,108.213,75.747,109.981,77.957,112.071z"/>
	<path style="fill:#1D1D1B;" d="M76.269,114.482c0.884,0.643,0.08,2.049-0.844,1.447c-2.09-1.286-4.179-2.652-6.108-4.219
		c-0.723-0.563,0.201-1.648,0.924-1.206C72.371,111.669,74.34,113.075,76.269,114.482z"/>
	<path style="fill:#1D1D1B;" d="M49.988,174.278c0.362,0.844-1.045,1.406-1.447,0.603c-1.728-3.255-2.13-6.631-1.045-10.167
		c0.321-1.045,1.808-0.603,1.607,0.442C48.541,168.17,48.863,171.385,49.988,174.278z"/>
	<path style="fill:#1D1D1B;" d="M47.738,177.493c0.04,0.603-0.924,0.603-0.964,0c-0.321-2.853-0.924-5.626-1.407-8.439
		c-0.121-0.643,0.764-0.924,0.964-0.281C47.215,171.586,47.537,174.56,47.738,177.493z"/>
</g>
<g>
</g>
<g>
</g>
<g>
</g>
<g>
</g>
<g>
</g>
<g>
</g>
<g>
</g>
<g>
</g>
<g>
</g>
<g>
</g>
<g>
</g>
<g>
</g>
<g>
</g>
<g>
</g>
<g>
</g>
</svg>
