<svg width="14" height="12" viewBox="0 0 14 12" fill="none" xmlns="http://www.w3.org/2000/svg">
<path d="M13.5434 10.1956H6.98405C6.88626 8.77291 6.3325 7.43823 5.39305 6.36122L10.975 0.779324C11.1532 0.601043 11.1532 0.311992 10.975 0.133711C10.7967 -0.0445703 10.5076 -0.0445703 10.3294 0.133711L0.133711 10.3294C0.0439688 10.4191 -0.00257014 10.54 0.000109542 10.6622C0.000601729 10.6844 0.00270719 10.7067 0.00648062 10.7288C0.0121408 10.762 0.0215197 10.7949 0.034754 10.8269C0.10541 10.9975 0.271879 11.1087 0.456531 11.1087H6.54348H13.5435C13.7956 11.1087 14 10.9043 14 10.6522C14 10.4 13.7956 10.1956 13.5434 10.1956ZM1.55865 10.1956L4.74588 7.00842C5.51522 7.91043 5.97435 9.0167 6.06877 10.1956H1.55865Z" fill="#A4A4A4"/>
</svg>
