<svg width="20" height="18" viewBox="0 0 20 18" fill="none" xmlns="http://www.w3.org/2000/svg">
<path d="M5.28994 3.99922C5.73994 3.99922 5.95994 3.45922 5.63994 3.14922L3.34994 0.849219C3.14994 0.649219 2.83994 0.649219 2.63994 0.849219L0.349941 3.14922C0.0399406 3.45922 0.259941 3.99922 0.709941 3.99922H1.99994V13.9992H0.709941C0.259941 13.9992 0.0399406 14.5392 0.359941 14.8492L2.64994 17.1392C2.84994 17.3392 3.15994 17.3392 3.35994 17.1392L5.64994 14.8492C5.95994 14.5392 5.73994 13.9992 5.28994 13.9992H3.99994V3.99922H5.28994ZM8.99994 3.99922H18.9999C19.5499 3.99922 19.9999 3.54922 19.9999 2.99922C19.9999 2.44922 19.5499 1.99922 18.9999 1.99922H8.99994C8.44994 1.99922 7.99994 2.44922 7.99994 2.99922C7.99994 3.54922 8.44994 3.99922 8.99994 3.99922ZM18.9999 13.9992H8.99994C8.44994 13.9992 7.99994 14.4492 7.99994 14.9992C7.99994 15.5492 8.44994 15.9992 8.99994 15.9992H18.9999C19.5499 15.9992 19.9999 15.5492 19.9999 14.9992C19.9999 14.4492 19.5499 13.9992 18.9999 13.9992ZM18.9999 7.99922H8.99994C8.44994 7.99922 7.99994 8.44922 7.99994 8.99922C7.99994 9.54922 8.44994 9.99922 8.99994 9.99922H18.9999C19.5499 9.99922 19.9999 9.54922 19.9999 8.99922C19.9999 8.44922 19.5499 7.99922 18.9999 7.99922Z" fill="#969696"/>
</svg>
