<svg width="18" height="20" viewBox="0 0 18 20" fill="none" xmlns="http://www.w3.org/2000/svg">
<path d="M4.10713 14.807C4.10713 14.357 3.56713 14.137 3.25713 14.457L0.957129 16.747C0.757129 16.947 0.757129 17.257 0.957129 17.457L3.25713 19.747C3.56713 20.057 4.10713 19.837 4.10713 19.387L4.10713 18.097L14.1071 18.097L14.1071 19.387C14.1071 19.837 14.6471 20.057 14.9571 19.737L17.2471 17.447C17.4471 17.247 17.4471 16.937 17.2471 16.737L14.9571 14.447C14.6471 14.137 14.1071 14.357 14.1071 14.807L14.1071 16.097L4.10713 16.097L4.10713 14.807ZM4.10713 11.097L4.10713 1.09698C4.10713 0.546984 3.65713 0.0969828 3.10713 0.0969829C2.55713 0.0969829 2.10713 0.546984 2.10713 1.09698L2.10713 11.097C2.10713 11.647 2.55713 12.097 3.10713 12.097C3.65713 12.097 4.10713 11.647 4.10713 11.097ZM14.1071 1.09698L14.1071 11.097C14.1071 11.647 14.5571 12.097 15.1071 12.097C15.6571 12.097 16.1071 11.647 16.1071 11.097L16.1071 1.09698C16.1071 0.546983 15.6571 0.0969823 15.1071 0.0969823C14.5571 0.0969824 14.1071 0.546983 14.1071 1.09698ZM8.10713 1.09698L8.10713 11.097C8.10713 11.647 8.55713 12.097 9.10713 12.097C9.65713 12.097 10.1071 11.647 10.1071 11.097L10.1071 1.09698C10.1071 0.546983 9.65713 0.0969826 9.10713 0.0969826C8.55713 0.0969826 8.10713 0.546983 8.10713 1.09698Z" fill="#969696"/>
</svg>
