<svg width="16" height="16" viewBox="0 0 16 16" fill="none" xmlns="http://www.w3.org/2000/svg">
<path d="M1.33333 15.5H14.6667C15.125 15.5 15.5 15.125 15.5 14.6667C15.5 14.2083 15.125 13.8333 14.6667 13.8333H1.33333C0.875 13.8333 0.5 14.2083 0.5 14.6667C0.5 15.125 0.875 15.5 1.33333 15.5ZM1.33333 12.1667H14.6667C15.125 12.1667 15.5 11.7917 15.5 11.3333C15.5 10.875 15.125 10.5 14.6667 10.5H1.33333C0.875 10.5 0.5 10.875 0.5 11.3333C0.5 11.7917 0.875 12.1667 1.33333 12.1667ZM1.33333 8.83333H14.6667C15.125 8.83333 15.5 8.45833 15.5 8C15.5 7.54167 15.125 7.16667 14.6667 7.16667H1.33333C0.875 7.16667 0.5 7.54167 0.5 8C0.5 8.45833 0.875 8.83333 1.33333 8.83333ZM1.33333 5.5H14.6667C15.125 5.5 15.5 5.125 15.5 4.66667C15.5 4.20833 15.125 3.83333 14.6667 3.83333H1.33333C0.875 3.83333 0.5 4.20833 0.5 4.66667C0.5 5.125 0.875 5.5 1.33333 5.5ZM0.5 1.33333C0.5 1.79167 0.875 2.16667 1.33333 2.16667H14.6667C15.125 2.16667 15.5 1.79167 15.5 1.33333C15.5 0.875 15.125 0.5 14.6667 0.5H1.33333C0.875 0.5 0.5 0.875 0.5 1.33333Z" fill="#A4A4A4"/>
</svg>
