<svg width="17" height="11" viewBox="0 0 17 11" fill="none" xmlns="http://www.w3.org/2000/svg">
<path d="M4.12207 10.1094C4.59375 10.1094 4.8877 9.80859 4.8877 9.31641V1.46191H7.30078C7.72461 1.46191 8.01172 1.20215 8.01172 0.798828C8.01172 0.395508 7.72461 0.135742 7.30078 0.135742H0.936523C0.512695 0.135742 0.225586 0.395508 0.225586 0.798828C0.225586 1.20215 0.512695 1.46191 0.936523 1.46191H3.35645V9.31641C3.35645 9.80859 3.64355 10.1094 4.12207 10.1094Z" fill="black"/>
<path d="M12.3662 10.1094C12.8379 10.1094 13.1318 9.80859 13.1318 9.31641V1.46191H15.5449C15.9688 1.46191 16.2559 1.20215 16.2559 0.798828C16.2559 0.395508 15.9688 0.135742 15.5449 0.135742H9.18066C8.75684 0.135742 8.46973 0.395508 8.46973 0.798828C8.46973 1.20215 8.75684 1.46191 9.18066 1.46191H11.6006V9.31641C11.6006 9.80859 11.8877 10.1094 12.3662 10.1094Z" fill="black"/>
</svg>
