<svg width="13" height="11" viewBox="0 0 13 11" fill="none" xmlns="http://www.w3.org/2000/svg">
<path d="M4.12207 10.1094C4.59375 10.1094 4.8877 9.80859 4.8877 9.31641V1.46191H7.30078C7.72461 1.46191 8.01172 1.20215 8.01172 0.798828C8.01172 0.395508 7.72461 0.135742 7.30078 0.135742H0.936523C0.512695 0.135742 0.225586 0.395508 0.225586 0.798828C0.225586 1.20215 0.512695 1.46191 0.936523 1.46191H3.35645V9.31641C3.35645 9.80859 3.64355 10.1094 4.12207 10.1094Z" fill="#A4A4A4"/>
<path d="M9.40625 8.27734C9.40625 9.4668 10.0215 10.0615 11.2314 10.0615H11.3066C12.0312 10.0615 12.373 9.83594 12.373 9.3916C12.373 9.04297 12.1611 8.87207 11.7373 8.83105L11.6211 8.82422C11.0879 8.7832 10.8896 8.52344 10.8896 7.94922V3.97754H11.7305C12.1133 3.97754 12.3457 3.75879 12.3457 3.39648C12.3457 3.03418 12.1133 2.80859 11.7305 2.80859H10.8896V1.74219C10.8896 1.27051 10.5957 0.956055 10.1514 0.956055C9.7002 0.956055 9.40625 1.27051 9.40625 1.74219V2.80859H8.88672C8.50391 2.80859 8.27148 3.02734 8.27148 3.39648C8.27148 3.75879 8.50391 3.97754 8.88672 3.97754H9.40625V8.27734Z" fill="#A4A4A4"/>
</svg>
