<svg width="9" height="11" viewBox="0 0 9 11" fill="none" xmlns="http://www.w3.org/2000/svg">
<path d="M1.16211 8.27734C1.16211 9.4668 1.77734 10.0615 2.9873 10.0615H3.0625C3.78711 10.0615 4.12891 9.83594 4.12891 9.3916C4.12891 9.04297 3.91699 8.87207 3.49316 8.83105L3.37695 8.82422C2.84375 8.7832 2.64551 8.52344 2.64551 7.94922V3.97754H3.48633C3.86914 3.97754 4.10156 3.75879 4.10156 3.39648C4.10156 3.03418 3.86914 2.80859 3.48633 2.80859H2.64551V1.74219C2.64551 1.27051 2.35156 0.956055 1.90723 0.956055C1.45605 0.956055 1.16211 1.27051 1.16211 1.74219V2.80859H0.642578C0.259766 2.80859 0.0273438 3.02734 0.0273438 3.39648C0.0273438 3.75879 0.259766 3.97754 0.642578 3.97754H1.16211V8.27734Z" fill="#A4A4A4"/>
<path d="M5.66016 8.27734C5.66016 9.4668 6.27539 10.0615 7.48535 10.0615H7.56055C8.28516 10.0615 8.62695 9.83594 8.62695 9.3916C8.62695 9.04297 8.41504 8.87207 7.99121 8.83105L7.875 8.82422C7.3418 8.7832 7.14355 8.52344 7.14355 7.94922V3.97754H7.98438C8.36719 3.97754 8.59961 3.75879 8.59961 3.39648C8.59961 3.03418 8.36719 2.80859 7.98438 2.80859H7.14355V1.74219C7.14355 1.27051 6.84961 0.956055 6.40527 0.956055C5.9541 0.956055 5.66016 1.27051 5.66016 1.74219V2.80859H5.14062C4.75781 2.80859 4.52539 3.02734 4.52539 3.39648C4.52539 3.75879 4.75781 3.97754 5.14062 3.97754H5.66016V8.27734Z" fill="#A4A4A4"/>
</svg>
