<svg width="12" height="16" viewBox="0 0 12 16" fill="none" xmlns="http://www.w3.org/2000/svg">
<path d="M6.65841 12.125C9.18342 11.8 11.0001 9.53333 11.0001 6.99167V1.54167C11.0001 0.966667 10.5334 0.5 9.95842 0.5C9.38342 0.5 8.91675 0.966667 8.91675 1.54167V7.08333C8.91675 8.475 7.97508 9.74167 6.60841 10.0167C4.73341 10.4083 3.08341 8.975 3.08341 7.16667V1.54167C3.08341 0.966667 2.61675 0.5 2.04175 0.5C1.46675 0.5 1.00008 0.966667 1.00008 1.54167V7.16667C1.00008 10.1417 3.60841 12.5167 6.65841 12.125ZM0.166748 14.6667C0.166748 15.125 0.541748 15.5 1.00008 15.5H11.0001C11.4584 15.5 11.8334 15.125 11.8334 14.6667C11.8334 14.2083 11.4584 13.8333 11.0001 13.8333H1.00008C0.541748 13.8333 0.166748 14.2083 0.166748 14.6667Z" fill="#A4A4A4"/>
</svg>
