<svg width="6" height="7" viewBox="0 0 6 7" fill="none" xmlns="http://www.w3.org/2000/svg">
<path d="M0.392098 0.0359775L5.87101 3.2722C5.91027 3.29547 5.94283 3.32874 5.96546 3.3687C5.98809 3.40867 6 3.45393 6 3.5C6 3.54607 5.98809 3.59133 5.96546 3.63129C5.94283 3.67126 5.91027 3.70453 5.87101 3.7278L0.392098 6.96402C0.352402 6.98748 0.307288 6.99989 0.261328 7C0.215368 7.00011 0.170195 6.98792 0.130389 6.96466C0.090582 6.9414 0.0575562 6.90789 0.0346584 6.86754C0.0117606 6.8272 -0.000195297 6.78143 2.41283e-06 6.7349V0.264044C-1.11822e-05 0.217598 0.0120789 0.171971 0.0350518 0.131769C0.0580246 0.0915678 0.0910669 0.0582154 0.130842 0.0350796C0.170618 0.0119438 0.215718 -0.000156147 0.261589 1.52138e-06C0.30746 0.00015919 0.352478 0.0125689 0.392098 0.0359775Z" fill="#1480E1"/>
</svg>
