<svg width="14" height="14" viewBox="0 0 14 14" fill="none" xmlns="http://www.w3.org/2000/svg">
<path d="M7.00016 5.00016C6.46973 5.00016 5.96102 5.21088 5.58595 5.58595C5.21088 5.96102 5.00016 6.46973 5.00016 7.00016C5.00016 7.5306 5.21088 8.0393 5.58595 8.41438C5.96102 8.78945 6.46973 9.00016 7.00016 9.00016C7.5306 9.00016 8.0393 8.78945 8.41438 8.41438C8.78945 8.0393 9.00016 7.5306 9.00016 7.00016C9.00016 6.46973 8.78945 5.96102 8.41438 5.58595C8.0393 5.21088 7.5306 5.00016 7.00016 5.00016ZM7.00016 3.66683C7.88422 3.66683 8.73206 4.01802 9.35718 4.64314C9.98231 5.26826 10.3335 6.11611 10.3335 7.00016C10.3335 7.88422 9.98231 8.73206 9.35718 9.35718C8.73206 9.98231 7.88422 10.3335 7.00016 10.3335C6.11611 10.3335 5.26826 9.98231 4.64314 9.35718C4.01802 8.73206 3.66683 7.88422 3.66683 7.00016C3.66683 6.11611 4.01802 5.26826 4.64314 4.64314C5.26826 4.01802 6.11611 3.66683 7.00016 3.66683ZM11.3335 3.50016C11.3335 3.72118 11.2457 3.93314 11.0894 4.08942C10.9331 4.2457 10.7212 4.3335 10.5002 4.3335C10.2791 4.3335 10.0672 4.2457 9.91091 4.08942C9.75463 3.93314 9.66683 3.72118 9.66683 3.50016C9.66683 3.27915 9.75463 3.06719 9.91091 2.91091C10.0672 2.75463 10.2791 2.66683 10.5002 2.66683C10.7212 2.66683 10.9331 2.75463 11.0894 2.91091C11.2457 3.06719 11.3335 3.27915 11.3335 3.50016ZM7.00016 1.66683C5.35083 1.66683 5.0815 1.6715 4.31416 1.7055C3.7915 1.73016 3.44083 1.80016 3.1155 1.92683C2.82616 2.03883 2.6175 2.17283 2.3955 2.3955C2.18683 2.5971 2.0264 2.84322 1.92616 3.1155C1.7995 3.44216 1.7295 3.79216 1.7055 4.31416C1.67083 5.05016 1.66683 5.3075 1.66683 7.00016C1.66683 8.6495 1.6715 8.91883 1.7055 9.68616C1.73016 10.2082 1.80016 10.5595 1.92616 10.8842C2.0395 11.1742 2.17283 11.3828 2.39416 11.6042C2.61883 11.8282 2.8275 11.9622 3.11416 12.0728C3.4435 12.2002 3.79416 12.2708 4.31416 12.2948C5.05016 12.3295 5.3075 12.3335 7.00016 12.3335C8.6495 12.3335 8.91883 12.3288 9.68616 12.2948C10.2075 12.2702 10.5588 12.2002 10.8842 12.0742C11.1728 11.9615 11.3828 11.8275 11.6042 11.6062C11.8288 11.3815 11.9628 11.1728 12.0735 10.8862C12.2002 10.5575 12.2708 10.2062 12.2948 9.68616C12.3295 8.95016 12.3335 8.69283 12.3335 7.00016C12.3335 5.35083 12.3288 5.0815 12.2948 4.31416C12.2702 3.79283 12.2002 3.44083 12.0735 3.1155C11.973 2.8435 11.8129 2.59747 11.6048 2.3955C11.4033 2.18673 11.1572 2.02627 10.8848 1.92616C10.5582 1.7995 10.2075 1.7295 9.68616 1.7055C8.95016 1.67083 8.69283 1.66683 7.00016 1.66683ZM7.00016 0.333496C8.8115 0.333496 9.0375 0.340163 9.74816 0.373496C10.4582 0.406829 10.9415 0.518163 11.3668 0.683496C11.8068 0.852829 12.1775 1.08216 12.5482 1.45216C12.8872 1.78543 13.1495 2.18856 13.3168 2.6335C13.4815 3.05816 13.5935 3.54216 13.6268 4.25216C13.6582 4.96283 13.6668 5.18883 13.6668 7.00016C13.6668 8.8115 13.6602 9.0375 13.6268 9.74816C13.5935 10.4582 13.4815 10.9415 13.3168 11.3668C13.1499 11.812 12.8876 12.2152 12.5482 12.5482C12.2148 12.887 11.8117 13.1493 11.3668 13.3168C10.9422 13.4815 10.4582 13.5935 9.74816 13.6268C9.0375 13.6582 8.8115 13.6668 7.00016 13.6668C5.18883 13.6668 4.96283 13.6602 4.25216 13.6268C3.54216 13.5935 3.05883 13.4815 2.6335 13.3168C2.18838 13.1498 1.78518 12.8875 1.45216 12.5482C1.1131 12.215 0.850784 11.8118 0.683496 11.3668C0.518163 10.9422 0.406829 10.4582 0.373496 9.74816C0.342163 9.0375 0.333496 8.8115 0.333496 7.00016C0.333496 5.18883 0.340163 4.96283 0.373496 4.25216C0.406829 3.5415 0.518163 3.05883 0.683496 2.6335C0.85032 2.18828 1.1127 1.78504 1.45216 1.45216C1.78528 1.11298 2.18845 0.850649 2.6335 0.683496C3.05883 0.518163 3.5415 0.406829 4.25216 0.373496C4.96283 0.342163 5.18883 0.333496 7.00016 0.333496Z" fill="#C4C4C4"/>
</svg>
