<svg width="15" height="13" viewBox="0 0 15 13" fill="none" xmlns="http://www.w3.org/2000/svg">
<path d="M0.781859 3.53376C0.594526 3.25842 0.613859 3.25842 1.00053 2.91909C1.82186 2.19776 2.59653 1.40842 3.49119 0.777757C4.30119 0.209757 5.37519 -0.15691 6.10919 0.746423C6.78519 1.57909 6.80119 2.84109 6.97253 3.84642C7.14386 4.88909 7.30786 5.95576 7.67319 6.95309C7.77453 7.23376 7.96853 7.76442 8.31853 7.80909C8.77053 7.87109 9.23053 7.07842 9.44053 6.78242C9.98519 5.99576 10.7239 4.93642 10.6305 3.92509C10.5385 2.85042 9.37853 3.05242 8.65319 3.30909C8.76986 2.10309 9.89186 0.74709 10.9732 0.28909C12.1199 -0.18691 13.8239 -0.17891 14.3999 1.11376C15.0152 2.51509 14.4619 4.14242 13.7919 5.41242C13.0605 6.79109 12.1192 8.06709 11.1132 9.25909C10.2259 10.3178 9.17586 11.4791 7.85319 11.9851C6.34186 12.5611 5.44653 11.4384 4.93186 10.1384C4.36986 8.72309 4.09053 7.13442 3.68519 5.66042C3.51453 5.03776 3.31186 4.32909 2.90719 3.81509C2.37919 3.15176 1.77919 3.77509 1.25786 4.13309C1.07853 3.95509 0.930526 3.72842 0.781859 3.53376Z" fill="#C4C4C4"/>
</svg>
