<svg width="14" height="12" viewBox="0 0 14 12" fill="none" xmlns="http://www.w3.org/2000/svg">
<path d="M12.0708 2.66317C12.0202 2.4645 11.8762 2.3145 11.7115 2.2685C11.4202 2.1865 10.0002 1.99984 7.00016 1.99984C4.00016 1.99984 2.5815 2.1865 2.2875 2.2685C2.12483 2.31384 1.98083 2.46384 1.9295 2.66317C1.85683 2.94584 1.66683 4.1305 1.66683 5.99984C1.66683 7.86917 1.85683 9.05317 1.9295 9.33717C1.98016 9.53517 2.12416 9.68517 2.28816 9.7305C2.5815 9.81317 4.00016 9.99984 7.00016 9.99984C10.0002 9.99984 11.4195 9.81317 11.7128 9.73117C11.8755 9.68583 12.0195 9.53583 12.0708 9.3365C12.1435 9.05383 12.3335 7.8665 12.3335 5.99984C12.3335 4.13317 12.1435 2.9465 12.0708 2.66317ZM13.3622 2.33184C13.6668 3.51984 13.6668 5.99984 13.6668 5.99984C13.6668 5.99984 13.6668 8.47984 13.3622 9.66784C13.1928 10.3245 12.6975 10.8412 12.0702 11.0158C10.9308 11.3332 7.00016 11.3332 7.00016 11.3332C7.00016 11.3332 3.0715 11.3332 1.93016 11.0158C1.30016 10.8385 0.805496 10.3225 0.638163 9.66784C0.333496 8.47984 0.333496 5.99984 0.333496 5.99984C0.333496 5.99984 0.333496 3.51984 0.638163 2.33184C0.807496 1.67517 1.30283 1.1585 1.93016 0.983837C3.0715 0.666504 7.00016 0.666504 7.00016 0.666504C7.00016 0.666504 10.9308 0.666504 12.0702 0.983837C12.7002 1.16117 13.1948 1.67717 13.3622 2.33184ZM5.66683 8.33317V3.6665L9.66683 5.99984L5.66683 8.33317Z" fill="#C4C4C4"/>
</svg>
