<svg width="12" height="14" viewBox="0 0 12 14" fill="none" xmlns="http://www.w3.org/2000/svg">
<path d="M11.1574 2.33333C10.6911 2.33333 10.3147 2.72417 10.3147 3.20833V6.125C10.3147 6.28833 10.1911 6.41667 10.0338 6.41667C9.87655 6.41667 9.75296 6.28833 9.75296 6.125V1.45833C9.75296 0.974167 9.37658 0.583333 8.91032 0.583333C8.44406 0.583333 8.06768 0.974167 8.06768 1.45833V6.125C8.06768 6.28833 7.9441 6.41667 7.7868 6.41667C7.62951 6.41667 7.50592 6.28833 7.50592 6.125V0.875C7.50592 0.390833 7.12954 0 6.66328 0C6.19702 0 5.82064 0.390833 5.82064 0.875V6.11917C5.82064 6.2825 5.69706 6.41083 5.53976 6.41083C5.38247 6.41083 5.25888 6.2825 5.25888 6.11917V2.625C5.25888 2.14083 4.8825 1.75 4.41624 1.75C3.94998 1.75 3.5736 2.14083 3.5736 2.625V9.28083L1.25915 7.91C0.933334 7.7175 0.528867 7.77 0.259222 8.03833C-0.0778336 8.37667 -0.0890687 8.93667 0.24237 9.28083L4.0511 13.3C4.47242 13.7492 5.04541 14 5.65212 14H9.75296C10.9944 14 12 12.9558 12 11.6667V3.20833C12 2.72417 11.6236 2.33333 11.1574 2.33333Z" fill="#C4C4C4"/>
</svg>
