<svg width="14" height="14" viewBox="0 0 14 14" fill="none" xmlns="http://www.w3.org/2000/svg">
<path d="M9.62517 8.50047H9.03267L8.82267 8.29797C9.72267 7.24797 10.1877 5.81547 9.93267 4.29297C9.58017 2.20797 7.84017 0.542969 5.74017 0.287969C2.56767 -0.102031 -0.0948333 2.56797 0.287667 5.74047C0.542667 7.84047 2.20767 9.58047 4.29267 9.93297C5.81517 10.188 7.24767 9.72297 8.29767 8.82297L8.50017 9.03297V9.62547L11.6952 12.813C12.0027 13.1205 12.4977 13.1205 12.8052 12.813L12.8127 12.8055C13.1202 12.498 13.1202 12.003 12.8127 11.6955L9.62517 8.50047ZM5.12517 8.50047C3.25767 8.50047 1.75017 6.99297 1.75017 5.12547C1.75017 3.25797 3.25767 1.75047 5.12517 1.75047C6.99267 1.75047 8.50017 3.25797 8.50017 5.12547C8.50017 6.99297 6.99267 8.50047 5.12517 8.50047ZM5.12517 3.25047C4.91517 3.25047 4.75017 3.41547 4.75017 3.62547V4.75047H3.62517C3.41517 4.75047 3.25017 4.91547 3.25017 5.12547C3.25017 5.33547 3.41517 5.50047 3.62517 5.50047H4.75017V6.62547C4.75017 6.83547 4.91517 7.00047 5.12517 7.00047C5.33517 7.00047 5.50017 6.83547 5.50017 6.62547V5.50047H6.62517C6.83517 5.50047 7.00017 5.33547 7.00017 5.12547C7.00017 4.91547 6.83517 4.75047 6.62517 4.75047H5.50017V3.62547C5.50017 3.41547 5.33517 3.25047 5.12517 3.25047Z" fill="#C4C4C4"/>
</svg>
