<svg width="12" height="12" viewBox="0 0 12 12" fill="none" xmlns="http://www.w3.org/2000/svg">
<path d="M10.5 6.74942H6.75V10.4994C6.75 10.9119 6.4125 11.2494 6 11.2494C5.5875 11.2494 5.25 10.9119 5.25 10.4994V6.74942H1.5C1.0875 6.74942 0.75 6.41192 0.75 5.99942C0.75 5.58692 1.0875 5.24942 1.5 5.24942H5.25V1.49942C5.25 1.08692 5.5875 0.74942 6 0.74942C6.4125 0.74942 6.75 1.08692 6.75 1.49942V5.24942H10.5C10.9125 5.24942 11.25 5.58692 11.25 5.99942C11.25 6.41192 10.9125 6.74942 10.5 6.74942Z" fill="#C4C4C4"/>
</svg>
