<svg width="12" height="12" viewBox="0 0 12 12" fill="none" xmlns="http://www.w3.org/2000/svg">
<path d="M1.5 7.5C1.0875 7.5 0.75 7.8375 0.75 8.25V10.5C0.75 10.9125 1.0875 11.25 1.5 11.25H3.75C4.1625 11.25 4.5 10.9125 4.5 10.5C4.5 10.0875 4.1625 9.75 3.75 9.75H2.25V8.25C2.25 7.8375 1.9125 7.5 1.5 7.5ZM1.5 4.5C1.9125 4.5 2.25 4.1625 2.25 3.75V2.25H3.75C4.1625 2.25 4.5 1.9125 4.5 1.5C4.5 1.0875 4.1625 0.75 3.75 0.75H1.5C1.0875 0.75 0.75 1.0875 0.75 1.5V3.75C0.75 4.1625 1.0875 4.5 1.5 4.5ZM9.75 9.75H8.25C7.8375 9.75 7.5 10.0875 7.5 10.5C7.5 10.9125 7.8375 11.25 8.25 11.25H10.5C10.9125 11.25 11.25 10.9125 11.25 10.5V8.25C11.25 7.8375 10.9125 7.5 10.5 7.5C10.0875 7.5 9.75 7.8375 9.75 8.25V9.75ZM7.5 1.5C7.5 1.9125 7.8375 2.25 8.25 2.25H9.75V3.75C9.75 4.1625 10.0875 4.5 10.5 4.5C10.9125 4.5 11.25 4.1625 11.25 3.75V1.5C11.25 1.0875 10.9125 0.75 10.5 0.75H8.25C7.8375 0.75 7.5 1.0875 7.5 1.5Z" fill="#C4C4C4"/>
</svg>
