<svg width="16" height="6" viewBox="0 0 16 6" fill="none" xmlns="http://www.w3.org/2000/svg">
<path d="M12.8 1.95C11.4125 0.7425 9.61253 0 7.62503 0C4.50503 0 1.82003 1.815 0.54503 4.4475C0.30503 4.95 0.57503 5.55 1.10753 5.73C1.55003 5.88 2.03003 5.67 2.23253 5.25C3.20753 3.255 5.25503 1.875 7.62503 1.875C9.08753 1.875 10.4225 2.415 11.465 3.285L10.0325 4.7175C9.56003 5.19 9.89003 6 10.5575 6H14.75C15.1625 6 15.5 5.6625 15.5 5.25V1.0575C15.5 0.39 14.69 0.0524999 14.2175 0.525L12.8 1.95Z" fill="#C4C4C4"/>
</svg>
